<?xml version="1.0" encoding="UTF-8"?>
<svg version="1.1" xmlns="http://www.w3.org/2000/svg" width="320" height="320">
<path d="M0 0 C26.4 0 52.8 0 80 0 C80 6.6 80 13.2 80 20 C93.2 20 106.4 20 120 20 C120 26.6 120 33.2 120 40 C126.6 40 133.2 40 140 40 C140 46.6 140 53.2 140 60 C146.6 60 153.2 60 160 60 C160 66.6 160 73.2 160 80 C166.6 80 173.2 80 180 80 C180 93.2 180 106.4 180 120 C186.6 120 193.2 120 200 120 C200 146.4 200 172.8 200 200 C193.4 200 186.8 200 180 200 C180 213.2 180 226.4 180 240 C173.4 240 166.8 240 160 240 C160 246.6 160 253.2 160 260 C153.4 260 146.8 260 140 260 C140 266.6 140 273.2 140 280 C133.4 280 126.8 280 120 280 C120 286.6 120 293.2 120 300 C106.8 300 93.6 300 80 300 C80 306.6 80 313.2 80 320 C53.6 320 27.2 320 0 320 C0 313.4 0 306.8 0 300 C-13.2 300 -26.4 300 -40 300 C-40 293.4 -40 286.8 -40 280 C-46.6 280 -53.2 280 -60 280 C-60 273.4 -60 266.8 -60 260 C-66.6 260 -73.2 260 -80 260 C-80 253.4 -80 246.8 -80 240 C-86.6 240 -93.2 240 -100 240 C-100 226.8 -100 213.6 -100 200 C-106.6 200 -113.2 200 -120 200 C-120 173.6 -120 147.2 -120 120 C-113.4 120 -106.8 120 -100 120 C-100 106.8 -100 93.6 -100 80 C-93.4 80 -86.8 80 -80 80 C-80 73.4 -80 66.8 -80 60 C-73.4 60 -66.8 60 -60 60 C-60 53.4 -60 46.8 -60 40 C-53.4 40 -46.8 40 -40 40 C-40 33.4 -40 26.8 -40 20 C-26.8 20 -13.6 20 0 20 C0 13.4 0 6.8 0 0 Z " fill="#FFD800" transform="translate(120,0)"/>
</svg>
